<svg width="324" height="231" viewBox="0 0 324 231" fill="none" xmlns="http://www.w3.org/2000/svg">
<g clip-path="url(#clip0_27_843)">
<path d="M207 70.0001C207 108.662 164.489 140 112.055 140C95.9073 140.095 79.9037 136.966 64.9864 130.796C64.7487 130.698 64.4928 130.652 64.2358 130.661C63.9788 130.67 63.7269 130.734 63.497 130.849C40.7163 142.364 13.3956 139.561 1.69575 137.574C-0.0269299 137.287 -0.681909 132.318 0.888244 131.566C0.619126 131.781 0.417819 132.069 0.308407 132.395C0.198995 132.721 0.186114 133.072 0.271302 133.406C0.35649 133.739 0.536141 134.041 0.78876 134.275C1.04138 134.509 1.35627 134.666 1.69575 134.726C13.3597 136.714 40.7163 139.517 63.497 128.002C63.7269 127.887 63.9788 127.823 64.2358 127.814C64.4928 127.804 64.7487 127.85 64.9864 127.948C79.9037 134.119 95.9073 137.248 112.055 137.153C163.843 137.153 205.95 106.585 206.982 68.5764C207 69.051 207 69.5255 207 70.0001Z" fill="#7AC943"/>
<path d="M112.055 135.362C96.1494 135.442 80.3869 132.362 65.6862 126.301C65.2502 126.113 64.7795 126.018 64.3045 126.023C63.7471 126.022 63.1973 126.151 62.6984 126.399C51.7343 131.942 38.4732 134.753 23.2203 134.753C16.1127 134.741 9.01833 134.142 2.0098 132.962C15.4682 126.489 25.8223 114.992 32.1478 106.495C32.6266 105.853 32.8762 105.07 32.8567 104.27C32.8372 103.47 32.5497 102.699 32.0401 102.081C24.6649 93.0468 20.3761 83.1261 19.2097 72.6145C19.0572 71.2625 18.9585 69.8836 18.9226 68.5226C19.443 50.7227 29.2766 34.0151 46.638 21.471C64.1878 8.78357 87.4171 1.77283 112.055 1.77283C136.693 1.77283 159.949 8.76566 177.499 21.471C194.851 34.0061 204.685 50.7495 205.188 68.5584C204.685 86.3673 194.851 103.093 177.499 115.655C159.949 128.369 136.702 135.362 112.055 135.362Z" fill="white"/>
<path d="M112.055 3.58143C136.28 3.58143 159.196 10.4579 176.449 22.9393C193.326 35.1432 202.891 51.3494 203.366 68.6032C202.864 85.8301 193.299 102.036 176.449 114.267C159.196 126.74 136.325 133.616 112.055 133.616C96.3992 133.7 80.8834 130.671 66.413 124.707C65.7472 124.421 65.0294 124.274 64.3045 124.277C63.4609 124.282 62.6295 124.478 61.873 124.85C51.169 130.223 38.1682 133.007 23.2293 133.007C18.01 133 12.7962 132.671 7.61748 132.022C19.0661 125.199 27.9397 115.216 33.6372 107.605C34.3521 106.644 34.7245 105.471 34.6953 104.274C34.666 103.077 34.2367 101.924 33.4757 100.998C26.2978 92.232 22.1077 82.6247 21.0042 72.4443C20.8606 71.1729 20.7709 69.8746 20.735 68.5763C21.2554 51.3584 30.8288 35.1701 47.7057 22.9662C64.9505 10.4937 87.8119 3.62621 112.073 3.62621L112.055 3.58143ZM112.073 0.0447267C60.2939 -4.17446e-05 18.1958 30.541 17.1281 68.5047C17.1281 69.9373 17.2627 71.3699 17.4242 72.7846C18.6175 83.8513 23.3011 94.1839 30.6763 103.227C30.9313 103.535 31.076 103.919 31.0874 104.318C31.0988 104.717 30.9762 105.108 30.7391 105.43C25.0327 113.085 14.6966 124.868 1.22023 131.395C1.10426 131.45 0.995729 131.519 0.897224 131.601V131.601C0.628107 131.817 0.426798 132.104 0.317386 132.431C0.207974 132.757 0.195093 133.108 0.280281 133.441C0.365469 133.775 0.545118 134.077 0.797738 134.311C1.05036 134.545 1.36525 134.702 1.70473 134.762C8.82072 135.951 16.0232 136.55 23.2383 136.553C35.5662 136.553 50.2987 134.69 63.5059 128.011C63.7567 127.886 64.0333 127.822 64.3135 127.823C64.5474 127.823 64.779 127.869 64.9954 127.957C79.9127 134.127 95.9163 137.257 112.064 137.162C163.852 137.162 205.959 106.594 206.991 68.5853C205.959 30.5768 163.852 0.00891113 112.064 0.00891113L112.073 0.0447267Z" fill="#273817"/>
<g filter="url(#filter0_d_27_843)">
<path d="M124.438 72.2812V68.2812C124.417 66.6146 124.271 64.9271 124 63.2188C123.729 61.4896 123.323 59.8333 122.781 58.25C122.219 56.6667 121.5 55.1875 120.625 53.8125C119.771 52.4167 118.75 51.2083 117.562 50.1875C116.354 49.1667 114.969 48.3646 113.406 47.7812C111.865 47.1771 110.125 46.875 108.188 46.875C106.25 46.875 104.5 47.1771 102.938 47.7812C101.396 48.3646 100.031 49.1667 98.8438 50.1875C97.6354 51.2292 96.6042 52.4479 95.75 53.8438C94.8958 55.2188 94.1875 56.6979 93.625 58.2812C93.0625 59.8646 92.6458 61.5104 92.375 63.2188C92.1042 64.9271 91.9583 66.6146 91.9375 68.2812V72.2812C91.9583 73.9479 92.1042 75.6354 92.375 77.3438C92.6458 79.0312 93.0625 80.6667 93.625 82.25C94.1875 83.8333 94.9062 85.3229 95.7812 86.7188C96.6562 88.0938 97.6979 89.2917 98.9062 90.3125C100.094 91.3333 101.458 92.1458 103 92.75C104.542 93.3333 106.281 93.625 108.219 93.625C108.969 93.625 109.688 93.5729 110.375 93.4688C111.083 93.3854 111.76 93.25 112.406 93.0625L121.406 100.688L125.375 96.9062L117.531 90.375C118.74 89.3542 119.771 88.1562 120.625 86.7812C121.5 85.3854 122.219 83.8958 122.781 82.3125C123.323 80.7292 123.729 79.0833 124 77.375C124.271 75.6667 124.417 73.9688 124.438 72.2812ZM118.688 68.2188V72.2812C118.667 73.4271 118.594 74.625 118.469 75.875C118.365 77.1042 118.167 78.3229 117.875 79.5312C117.562 80.7396 117.156 81.8854 116.656 82.9688C116.156 84.0521 115.521 85 114.75 85.8125C113.979 86.6458 113.052 87.3125 111.969 87.8125C110.906 88.2917 109.656 88.5312 108.219 88.5312C106.802 88.5312 105.552 88.2917 104.469 87.8125C103.406 87.3125 102.49 86.6458 101.719 85.8125C100.948 84.9792 100.302 84.0208 99.7812 82.9375C99.2812 81.8542 98.875 80.7083 98.5625 79.5C98.25 78.2917 98.0208 77.0729 97.875 75.8438C97.75 74.5938 97.6875 73.4062 97.6875 72.2812V68.2188C97.6875 67.0938 97.75 65.9167 97.875 64.6875C98.0208 63.4375 98.25 62.2083 98.5625 61C98.875 59.8125 99.2812 58.6771 99.7812 57.5938C100.302 56.5104 100.948 55.5521 101.719 54.7188C102.49 53.9062 103.406 53.2604 104.469 52.7812C105.531 52.2812 106.771 52.0312 108.188 52.0312C109.625 52.0312 110.875 52.2708 111.938 52.75C113.021 53.2292 113.948 53.875 114.719 54.6875C115.49 55.5208 116.125 56.4792 116.625 57.5625C117.146 58.6458 117.562 59.7812 117.875 60.9688C118.167 62.1771 118.365 63.4062 118.469 64.6562C118.594 65.8854 118.667 67.0729 118.688 68.2188Z" fill="#273817"/>
</g>
</g>
<g clip-path="url(#clip1_27_843)">
<path d="M117 161C117 199.662 159.511 231 211.945 231C228.093 231.095 244.096 227.966 259.014 221.796C259.251 221.698 259.507 221.652 259.764 221.661C260.021 221.67 260.273 221.734 260.503 221.849C283.284 233.364 310.604 230.561 322.304 228.574C324.027 228.287 324.682 223.318 323.112 222.566C323.381 222.781 323.582 223.069 323.692 223.395C323.801 223.721 323.814 224.072 323.729 224.406C323.643 224.739 323.464 225.041 323.211 225.275C322.959 225.509 322.644 225.666 322.304 225.726C310.64 227.714 283.284 230.517 260.503 219.002C260.273 218.887 260.021 218.823 259.764 218.814C259.507 218.804 259.251 218.85 259.014 218.948C244.096 225.119 228.093 228.248 211.945 228.153C160.157 228.153 118.05 197.585 117.018 159.576C117 160.051 117 160.526 117 161Z" fill="#7AC943"/>
<path d="M211.945 226.362C227.851 226.442 243.613 223.362 258.314 217.301C258.75 217.113 259.221 217.018 259.696 217.023C260.253 217.022 260.803 217.151 261.302 217.399C272.266 222.942 285.527 225.753 300.78 225.753C307.887 225.741 314.982 225.142 321.99 223.962C308.532 217.489 298.178 205.992 291.852 197.495C291.373 196.853 291.124 196.07 291.143 195.27C291.163 194.47 291.45 193.699 291.96 193.081C299.335 184.047 303.624 174.126 304.79 163.614C304.943 162.262 305.042 160.884 305.077 159.523C304.557 141.723 294.723 125.015 277.362 112.471C259.812 99.7836 236.583 92.7728 211.945 92.7728C187.307 92.7728 164.051 99.7657 146.501 112.471C129.149 125.006 119.315 141.75 118.812 159.558C119.315 177.367 129.149 194.093 146.501 206.655C164.051 219.369 187.298 226.362 211.945 226.362Z" fill="white"/>
<path d="M211.945 94.5814C187.72 94.5814 164.804 101.458 147.551 113.939C130.674 126.143 121.109 142.349 120.634 159.603C121.136 176.83 130.701 193.036 147.551 205.267C164.804 217.74 187.675 224.616 211.945 224.616C227.601 224.7 243.117 221.671 257.587 215.707C258.253 215.421 258.971 215.274 259.696 215.277C260.539 215.282 261.371 215.478 262.127 215.85C272.831 221.223 285.832 224.007 300.771 224.007C305.99 224 311.204 223.671 316.383 223.022C304.934 216.199 296.06 206.216 290.363 198.605C289.648 197.644 289.275 196.471 289.305 195.274C289.334 194.077 289.763 192.924 290.524 191.998C297.702 183.232 301.892 173.625 302.996 163.444C303.139 162.173 303.229 160.875 303.265 159.576C302.745 142.358 293.171 126.17 276.294 113.966C259.049 101.494 236.188 94.6262 211.927 94.6262L211.945 94.5814ZM211.927 91.0447C263.706 91 305.804 121.541 306.872 159.505C306.872 160.937 306.737 162.37 306.576 163.785C305.382 174.851 300.699 185.184 293.324 194.227C293.069 194.535 292.924 194.919 292.913 195.318C292.901 195.717 293.024 196.108 293.261 196.43C298.967 204.085 309.303 215.868 322.78 222.395C322.896 222.45 323.004 222.519 323.103 222.601V222.601C323.372 222.817 323.573 223.104 323.683 223.431C323.792 223.757 323.805 224.108 323.72 224.441C323.635 224.775 323.455 225.077 323.202 225.311C322.95 225.545 322.635 225.702 322.295 225.762C315.179 226.951 307.977 227.55 300.762 227.553C288.434 227.553 273.701 225.69 260.494 219.011C260.243 218.886 259.967 218.822 259.687 218.823C259.453 218.823 259.221 218.869 259.005 218.957C244.087 225.127 228.084 228.257 211.936 228.162C160.148 228.162 118.041 197.594 117.009 159.585C118.041 121.577 160.148 91.0089 211.936 91.0089L211.927 91.0447Z" fill="#273817"/>
<g filter="url(#filter1_d_27_843)">
<path d="M218.156 174.219L221.75 186H227.5L213.062 140.5H208.219L193.531 186H199.312L202.969 174.219H218.156ZM204.531 169.188L210.625 149.438L216.625 169.188H204.531Z" fill="#273817"/>
</g>
</g>
<defs>
<filter id="filter0_d_27_843" x="91.9375" y="46.875" width="35.4375" height="55.8125" filterUnits="userSpaceOnUse" color-interpolation-filters="sRGB">
<feFlood flood-opacity="0" result="BackgroundImageFix"/>
<feColorMatrix in="SourceAlpha" type="matrix" values="0 0 0 0 0 0 0 0 0 0 0 0 0 0 0 0 0 0 127 0" result="hardAlpha"/>
<feOffset dx="2" dy="2"/>
<feComposite in2="hardAlpha" operator="out"/>
<feColorMatrix type="matrix" values="0 0 0 0 0.578637 0 0 0 0 0.795833 0 0 0 0 0.361441 0 0 0 1 0"/>
<feBlend mode="normal" in2="BackgroundImageFix" result="effect1_dropShadow_27_843"/>
<feBlend mode="normal" in="SourceGraphic" in2="effect1_dropShadow_27_843" result="shape"/>
</filter>
<filter id="filter1_d_27_843" x="193.531" y="140.5" width="35.9688" height="47.5" filterUnits="userSpaceOnUse" color-interpolation-filters="sRGB">
<feFlood flood-opacity="0" result="BackgroundImageFix"/>
<feColorMatrix in="SourceAlpha" type="matrix" values="0 0 0 0 0 0 0 0 0 0 0 0 0 0 0 0 0 0 127 0" result="hardAlpha"/>
<feOffset dx="2" dy="2"/>
<feComposite in2="hardAlpha" operator="out"/>
<feColorMatrix type="matrix" values="0 0 0 0 0.578637 0 0 0 0 0.795833 0 0 0 0 0.361441 0 0 0 1 0"/>
<feBlend mode="normal" in2="BackgroundImageFix" result="effect1_dropShadow_27_843"/>
<feBlend mode="normal" in="SourceGraphic" in2="effect1_dropShadow_27_843" result="shape"/>
</filter>
<clipPath id="clip0_27_843">
<rect width="207" height="140" fill="white"/>
</clipPath>
<clipPath id="clip1_27_843">
<rect width="207" height="140" fill="white" transform="matrix(-1 0 0 1 324 91)"/>
</clipPath>
</defs>
</svg>
