<svg width="353" height="55" viewBox="0 0 353 55" fill="none" xmlns="http://www.w3.org/2000/svg">
<path d="M76.7256 33.6914C76.7256 34.123 76.637 34.5215 76.46 34.8867C76.2829 35.2409 76.0283 35.5452 75.6963 35.7998C75.3643 36.0544 74.9548 36.2536 74.4678 36.3975C73.9919 36.5413 73.444 36.6133 72.8242 36.6133C72.127 36.6133 71.485 36.5358 70.8984 36.3809C70.3229 36.2259 69.8304 35.9824 69.4209 35.6504C69.0003 35.3184 68.6738 34.8923 68.4414 34.3721C68.209 33.8519 68.0817 33.2266 68.0596 32.4961H63.4775C63.4775 33.7467 63.7155 34.8369 64.1914 35.7666C64.6784 36.6963 65.3369 37.5042 66.167 38.1904C67.0413 38.8877 68.0651 39.4189 69.2383 39.7842C70.4225 40.1383 71.6178 40.3154 72.8242 40.3154C74.0527 40.3154 75.1872 40.1715 76.2275 39.8838C77.2679 39.585 78.1644 39.1478 78.917 38.5723C79.6696 38.0078 80.2562 37.3161 80.6768 36.4971C81.1084 35.667 81.3242 34.7207 81.3242 33.6582C81.3242 32.4297 81.042 31.3451 80.4775 30.4043C79.9131 29.4635 79.1549 28.639 78.2031 27.9307C77.5723 27.499 76.8805 27.1172 76.1279 26.7852C75.3753 26.4531 74.584 26.1709 73.7539 25.9385C72.9792 25.7282 72.2819 25.5013 71.6621 25.2578C71.0534 25.0143 70.5332 24.7432 70.1016 24.4443C69.6699 24.1566 69.3379 23.8301 69.1055 23.4648C68.8841 23.0996 68.7734 22.6901 68.7734 22.2363C68.7734 21.8047 68.8564 21.4062 69.0225 21.041C69.1995 20.6647 69.4541 20.3382 69.7861 20.0615C70.1182 19.7959 70.5221 19.5911 70.998 19.4473C71.485 19.2923 72.0384 19.2148 72.6582 19.2148C73.3333 19.2148 73.9199 19.3089 74.418 19.4971C74.9271 19.6742 75.3532 19.9232 75.6963 20.2441C76.0283 20.5762 76.2773 20.9691 76.4434 21.4229C76.6204 21.8766 76.7201 22.3747 76.7422 22.917H81.291C81.291 21.8324 81.0807 20.8363 80.6602 19.9287C80.2396 19.0212 79.653 18.2354 78.9004 17.5713C78.1478 16.9183 77.2458 16.4092 76.1943 16.0439C75.154 15.6787 74.0029 15.4961 72.7412 15.4961C71.5238 15.4961 70.3949 15.6566 69.3545 15.9775C68.3141 16.2874 67.4121 16.7357 66.6484 17.3223C65.8848 17.9089 65.2871 18.6172 64.8555 19.4473C64.4238 20.2773 64.208 21.2015 64.208 22.2197C64.208 23.1051 64.3685 23.9242 64.6895 24.6768C65.0215 25.4294 65.5085 26.1156 66.1504 26.7354C66.7923 27.3551 67.6169 27.9251 68.624 28.4453C69.6423 28.9655 70.821 29.4082 72.1602 29.7734C73.0234 30.0059 73.7428 30.2604 74.3184 30.5371C74.9049 30.8027 75.3809 31.096 75.7461 31.417C76.1003 31.749 76.3493 32.1032 76.4932 32.4795C76.6481 32.8558 76.7256 33.2598 76.7256 33.6914ZM93.2275 17.6377H88.6123V22.0371H84.5117V25.4404H88.6123V33.6084C88.6123 34.7926 88.7673 35.8109 89.0771 36.6631C89.387 37.5042 89.8298 38.196 90.4053 38.7383C90.9697 39.2917 91.6504 39.7012 92.4473 39.9668C93.2552 40.2214 94.1517 40.3486 95.1367 40.3486C95.6458 40.3486 96.1605 40.321 96.6807 40.2656C97.2119 40.2214 97.721 40.1549 98.208 40.0664C98.695 39.9779 99.1543 39.8672 99.5859 39.7344C100.018 39.5905 100.394 39.4245 100.715 39.2363L100.267 36.0654C100.056 36.1208 99.8018 36.1761 99.5029 36.2314C99.2152 36.2868 98.9053 36.3366 98.5732 36.3809C98.2301 36.4362 97.8704 36.4805 97.4941 36.5137C97.1289 36.5469 96.7692 36.5635 96.415 36.5635C95.9281 36.5635 95.4854 36.5081 95.0869 36.3975C94.6995 36.2868 94.3675 36.0986 94.0908 35.833C93.8141 35.5785 93.5983 35.2354 93.4434 34.8037C93.2995 34.361 93.2275 33.8132 93.2275 33.1602V25.4404H99.9346V22.0371H93.2275V17.6377ZM116.403 40H121.085V39.7178C120.853 39.264 120.675 38.7217 120.554 38.0908C120.432 37.46 120.371 36.6631 120.371 35.7002V27.9971C120.371 26.9567 120.177 26.0436 119.79 25.2578C119.403 24.4609 118.866 23.8024 118.18 23.2822C117.493 22.762 116.68 22.3691 115.739 22.1035C114.81 21.8379 113.802 21.7051 112.718 21.7051C111.511 21.7051 110.438 21.86 109.497 22.1699C108.567 22.4688 107.782 22.8783 107.14 23.3984C106.487 23.9186 105.989 24.5218 105.646 25.208C105.313 25.8942 105.147 26.6191 105.147 27.3828H109.763C109.763 27.0618 109.807 26.7686 109.896 26.5029C109.995 26.2373 110.145 26.0104 110.344 25.8223C110.565 25.612 110.853 25.4515 111.207 25.3408C111.561 25.2191 111.982 25.1582 112.469 25.1582C113.022 25.1582 113.504 25.2301 113.913 25.374C114.334 25.5068 114.682 25.7005 114.959 25.9551C115.225 26.1986 115.424 26.4919 115.557 26.835C115.689 27.167 115.756 27.5433 115.756 27.9639V29.0264H113.183C111.854 29.0264 110.676 29.1481 109.646 29.3916C108.628 29.624 107.771 29.9671 107.073 30.4209C106.299 30.9189 105.717 31.5553 105.33 32.3301C104.943 33.0938 104.749 33.9736 104.749 34.9697C104.749 35.7445 104.904 36.4639 105.214 37.1279C105.524 37.7809 105.955 38.3454 106.509 38.8213C107.062 39.2972 107.721 39.668 108.484 39.9336C109.259 40.1992 110.106 40.332 111.024 40.332C111.589 40.332 112.115 40.2767 112.602 40.166C113.089 40.0664 113.537 39.9225 113.946 39.7344C114.345 39.5573 114.71 39.347 115.042 39.1035C115.374 38.86 115.667 38.5999 115.922 38.3232C115.977 38.6442 116.044 38.9486 116.121 39.2363C116.199 39.5241 116.293 39.7786 116.403 40ZM112.004 36.7627C111.572 36.7627 111.19 36.7129 110.858 36.6133C110.537 36.5026 110.266 36.3587 110.045 36.1816C109.824 35.9935 109.652 35.7666 109.53 35.501C109.42 35.2243 109.364 34.9255 109.364 34.6045C109.364 34.195 109.442 33.8187 109.597 33.4756C109.752 33.1214 109.99 32.8171 110.311 32.5625C110.632 32.319 111.047 32.1309 111.556 31.998C112.065 31.8542 112.679 31.7822 113.398 31.7822H115.756V34.8701C115.623 35.1025 115.44 35.335 115.208 35.5674C114.976 35.7887 114.699 35.988 114.378 36.165C114.057 36.3421 113.697 36.486 113.299 36.5967C112.9 36.7074 112.469 36.7627 112.004 36.7627ZM133.553 36.6465C132.811 36.6465 132.197 36.4971 131.71 36.1982C131.234 35.8994 130.858 35.501 130.581 35.0029C130.293 34.516 130.094 33.9515 129.983 33.3096C129.873 32.6566 129.817 31.9814 129.817 31.2842V30.7861C129.817 30.0999 129.873 29.4359 129.983 28.7939C130.105 28.152 130.31 27.582 130.598 27.084C130.874 26.5859 131.251 26.1875 131.727 25.8887C132.202 25.5898 132.806 25.4404 133.536 25.4404C134.034 25.4404 134.493 25.529 134.914 25.7061C135.335 25.8721 135.694 26.099 135.993 26.3867C136.292 26.6745 136.519 27.0176 136.674 27.416C136.829 27.8145 136.895 28.235 136.873 28.6777H141.223C141.245 27.6152 141.068 26.6579 140.691 25.8057C140.315 24.9424 139.789 24.2064 139.114 23.5977C138.428 23 137.615 22.5352 136.674 22.2031C135.733 21.8711 134.709 21.7051 133.603 21.7051C132.219 21.7051 131.002 21.943 129.95 22.4189C128.91 22.8949 128.035 23.5423 127.327 24.3613C126.619 25.1803 126.088 26.1432 125.733 27.25C125.379 28.3457 125.202 29.5244 125.202 30.7861V31.2842C125.202 32.5459 125.379 33.7301 125.733 34.8369C126.099 35.9326 126.635 36.89 127.344 37.709C128.041 38.528 128.915 39.1755 129.967 39.6514C131.018 40.1162 132.241 40.3486 133.636 40.3486C134.665 40.3486 135.639 40.1882 136.558 39.8672C137.487 39.5352 138.301 39.0814 138.998 38.5059C139.695 37.9303 140.243 37.2441 140.642 36.4473C141.051 35.6504 141.245 34.7871 141.223 33.8574H136.873C136.895 34.278 136.818 34.6598 136.641 35.0029C136.475 35.346 136.237 35.6393 135.927 35.8828C135.617 36.1263 135.257 36.3145 134.848 36.4473C134.438 36.5801 134.007 36.6465 133.553 36.6465ZM152.777 32.5791L157.874 40H163.535L155.815 29.5244L162.589 22.0371H157.044L152.08 27.4824L150.686 29.0762V14.5H146.07V40H150.686V34.5215L152.777 32.5791ZM166.175 40H172.666C173.74 40 174.747 39.8672 175.688 39.6016C176.639 39.3359 177.508 38.9541 178.294 38.4561C178.969 38.0355 179.589 37.5153 180.153 36.8955C180.718 36.2646 181.21 35.5785 181.631 34.8369C182.074 34.0068 182.417 33.0938 182.66 32.0977C182.904 31.1016 183.025 30.0446 183.025 28.9268V26.9346C183.025 25.7725 182.893 24.6768 182.627 23.6475C182.372 22.6182 182.007 21.6774 181.531 20.8252C181.122 20.1279 180.64 19.486 180.087 18.8994C179.545 18.3018 178.925 17.7982 178.228 17.3887C177.431 16.8906 176.545 16.5088 175.571 16.2432C174.597 15.9665 173.551 15.8281 172.434 15.8281H166.175V40ZM170.873 19.6133H172.434C172.998 19.6133 173.518 19.6797 173.994 19.8125C174.481 19.9342 174.924 20.1113 175.322 20.3438C175.842 20.6536 176.296 21.0521 176.684 21.5391C177.082 22.026 177.403 22.5794 177.646 23.1992C177.846 23.7194 177.995 24.2949 178.095 24.9258C178.205 25.5456 178.261 26.2041 178.261 26.9014V28.9268C178.261 29.6683 178.205 30.36 178.095 31.002C177.995 31.6328 177.846 32.2083 177.646 32.7285C177.403 33.3262 177.11 33.8519 176.767 34.3057C176.435 34.7484 176.058 35.1136 175.638 35.4014C175.228 35.6781 174.774 35.8883 174.276 36.0322C173.778 36.1761 173.242 36.248 172.666 36.248H170.873V19.6133ZM195.576 40.332C197.314 40.332 198.819 39.9945 200.092 39.3193C201.365 38.6442 202.294 37.8916 202.881 37.0615L200.573 34.5713C200.042 35.2575 199.35 35.7721 198.498 36.1152C197.646 36.4583 196.766 36.6299 195.858 36.6299C195.216 36.6299 194.624 36.5303 194.082 36.3311C193.54 36.1318 193.058 35.8496 192.638 35.4844C192.228 35.1302 191.902 34.7373 191.658 34.3057C191.415 33.863 191.215 33.2819 191.061 32.5625V32.5127H203.246V30.5537C203.246 29.2367 203.063 28.0358 202.698 26.9512C202.333 25.8555 201.802 24.9202 201.104 24.1455C200.396 23.3708 199.533 22.7731 198.515 22.3525C197.507 21.9209 196.356 21.7051 195.062 21.7051C193.811 21.7051 192.654 21.932 191.592 22.3857C190.529 22.8395 189.611 23.4759 188.836 24.2949C188.061 25.1139 187.458 26.0934 187.026 27.2334C186.595 28.3623 186.379 29.613 186.379 30.9854V31.6494C186.379 32.8558 186.595 33.9902 187.026 35.0527C187.469 36.1042 188.094 37.0173 188.902 37.792C189.71 38.5778 190.679 39.1976 191.808 39.6514C192.937 40.1051 194.193 40.332 195.576 40.332ZM195.028 25.4404C195.615 25.4404 196.13 25.5345 196.572 25.7227C197.026 25.8997 197.408 26.1432 197.718 26.4531C198.028 26.7741 198.271 27.1504 198.448 27.582C198.625 28.0137 198.714 28.473 198.714 28.96V29.3252H191.144C191.254 28.7386 191.42 28.2074 191.642 27.7314C191.863 27.2555 192.14 26.846 192.472 26.5029C192.793 26.1598 193.169 25.8997 193.601 25.7227C194.032 25.5345 194.508 25.4404 195.028 25.4404ZM212.991 40H217.324L224.147 22.0371H219.333L215.398 34.7041L215.149 35.9658L214.9 34.7041L210.949 22.0371H206.135L212.991 40ZM243.488 40V15.8281H238.873V25.7393H232.033V15.8281H227.401V40H232.033V29.5244H238.873V40H243.488ZM256.836 40.332C258.574 40.332 260.079 39.9945 261.352 39.3193C262.624 38.6442 263.554 37.8916 264.141 37.0615L261.833 34.5713C261.302 35.2575 260.61 35.7721 259.758 36.1152C258.906 36.4583 258.026 36.6299 257.118 36.6299C256.476 36.6299 255.884 36.5303 255.342 36.3311C254.799 36.1318 254.318 35.8496 253.897 35.4844C253.488 35.1302 253.161 34.7373 252.918 34.3057C252.674 33.863 252.475 33.2819 252.32 32.5625V32.5127H264.506V30.5537C264.506 29.2367 264.323 28.0358 263.958 26.9512C263.593 25.8555 263.062 24.9202 262.364 24.1455C261.656 23.3708 260.793 22.7731 259.774 22.3525C258.767 21.9209 257.616 21.7051 256.321 21.7051C255.071 21.7051 253.914 21.932 252.852 22.3857C251.789 22.8395 250.87 23.4759 250.096 24.2949C249.321 25.1139 248.718 26.0934 248.286 27.2334C247.854 28.3623 247.639 29.613 247.639 30.9854V31.6494C247.639 32.8558 247.854 33.9902 248.286 35.0527C248.729 36.1042 249.354 37.0173 250.162 37.792C250.97 38.5778 251.938 39.1976 253.067 39.6514C254.196 40.1051 255.452 40.332 256.836 40.332ZM256.288 25.4404C256.875 25.4404 257.389 25.5345 257.832 25.7227C258.286 25.8997 258.668 26.1432 258.978 26.4531C259.287 26.7741 259.531 27.1504 259.708 27.582C259.885 28.0137 259.974 28.473 259.974 28.96V29.3252H252.403C252.514 28.7386 252.68 28.2074 252.901 27.7314C253.123 27.2555 253.399 26.846 253.731 26.5029C254.052 26.1598 254.429 25.8997 254.86 25.7227C255.292 25.5345 255.768 25.4404 256.288 25.4404ZM269.503 14.5V18.2686H274.882V36.248H269.503V40H284.693V36.248H279.547V14.5H269.503ZM289.026 46.9062H293.642V38.4395C293.852 38.6719 294.073 38.8822 294.306 39.0703C294.538 39.2585 294.782 39.43 295.036 39.585C295.468 39.8285 295.933 40.0111 296.431 40.1328C296.94 40.2656 297.493 40.332 298.091 40.332C299.22 40.332 300.221 40.0996 301.096 39.6348C301.97 39.1699 302.706 38.528 303.304 37.709C303.89 36.901 304.333 35.9382 304.632 34.8203C304.942 33.7025 305.097 32.4906 305.097 31.1846V30.8359C305.097 29.4746 304.942 28.235 304.632 27.1172C304.333 25.9883 303.885 25.0199 303.287 24.2119C302.689 23.415 301.953 22.8008 301.079 22.3691C300.205 21.9264 299.198 21.7051 298.058 21.7051C297.504 21.7051 296.984 21.766 296.497 21.8877C296.021 21.9984 295.584 22.1589 295.186 22.3691C294.854 22.5462 294.544 22.7565 294.256 23C293.968 23.2324 293.702 23.498 293.459 23.7969L293.293 22.0371H289.026V46.9062ZM300.481 30.8359V31.1846C300.481 31.9261 300.415 32.6289 300.282 33.293C300.149 33.946 299.939 34.5215 299.651 35.0195C299.364 35.5176 298.987 35.9105 298.522 36.1982C298.069 36.486 297.515 36.6299 296.862 36.6299C296.453 36.6299 296.082 36.5911 295.75 36.5137C295.418 36.4251 295.125 36.3034 294.87 36.1484C294.604 35.9824 294.367 35.7832 294.156 35.5508C293.957 35.3184 293.785 35.0583 293.642 34.7705V27.2666C293.797 26.9567 293.979 26.6855 294.189 26.4531C294.411 26.2207 294.665 26.027 294.953 25.8721C295.208 25.7393 295.49 25.6396 295.8 25.5732C296.11 25.4958 296.453 25.457 296.829 25.457C297.482 25.457 298.035 25.5954 298.489 25.8721C298.954 26.1488 299.336 26.5251 299.635 27.001C299.923 27.488 300.133 28.0635 300.266 28.7275C300.41 29.3805 300.481 30.0833 300.481 30.8359Z" fill="#fff"/>
<path fill-rule="evenodd" clip-rule="evenodd" d="M19.3518 8.14816L0 27.5L1.48357e-05 27.5L19.3519 46.8519H35.6481L16.2963 27.5L16.2963 27.5L35.6481 8.14816H19.3518Z" fill="#A4E265"/>
<path fill-rule="evenodd" clip-rule="evenodd" d="M38.7037 27.5001L19.3519 8.14822H35.6482L55 27.5001H38.7037ZM35.6481 46.8519L55 27.5001H38.7037L19.3518 46.8519H35.6481Z" fill="#fff"/>
</svg>